<?xml version="1.0" encoding="utf-8"?>
<!-- Generator: Adobe Illustrator 26.3.1, SVG Export Plug-In . SVG Version: 6.00 Build 0)  -->
<svg version="1.1" id="Layer_1" xmlns="http://www.w3.org/2000/svg" xmlns:xlink="http://www.w3.org/1999/xlink" x="0px" y="0px"
	 viewBox="0 0 405.3 103.7" style="enable-background:new 0 0 405.3 103.7;" xml:space="preserve">
<style type="text/css">
	.st0{fill:#4B1111;}
	.st1{fill:#FFFFFF;}
	.st2{fill:#B1B3B6;}
	.st3{fill:#231F20;}
</style>
<g>
	<rect class="st0" width="102.9" height="103.7"/>
	<g>
		<polygon class="st1" points="89.2,41.3 81.6,41.3 81.1,41.3 80.9,41.7 75.4,53.2 69.9,41.7 69.6,41.3 69.2,41.3 61.8,41.3 
			61.1,41.3 61.1,42 61.1,45.9 61.1,46.6 61.8,46.6 63.1,46.6 63.1,63.1 61.7,63.1 61,63.1 61,63.8 61,67.8 61,68.5 61.7,68.5 
			70,68.5 70.7,68.5 70.7,67.8 70.7,63.8 70.7,63.1 70,63.1 68.6,63.1 68.6,51.4 74.8,64.2 75.4,65.5 76.1,64.2 82.3,51.4 
			82.3,63.1 80.9,63.1 80.2,63.1 80.2,63.8 80.2,67.8 80.2,68.5 80.9,68.5 89.2,68.5 89.9,68.5 89.9,67.8 89.9,63.8 89.9,63.1 
			89.2,63.1 87.8,63.1 87.8,46.6 89.2,46.6 89.9,46.6 89.9,45.9 89.9,42 89.9,41.3 		"/>
		<path class="st1" d="M41.1,63.1h-2.2l-7.2-16.6h1.4v-5.4H21.5v5.4h1.6l-7.2,16.6h-3v5.3h10.5v-5.3h-1.5l1.2-2.8h8.6l1.2,2.8h-1.6
			v5.3h10.5v-5.3H41.1L41.1,63.1z M29.4,55h-4l2-4.6L29.4,55z"/>
		<polygon class="st1" points="80.4,20.5 22.2,20.5 21.4,20.5 21.4,21.3 21.4,36.9 21.4,37.7 22.2,37.7 32.3,37.7 33.1,37.7 
			33.1,36.9 33.1,31.1 45.5,31.1 45.5,72.1 39.8,72.1 38.9,72.1 38.9,72.9 38.9,82.9 38.9,83.8 39.8,83.8 62.9,83.8 63.8,83.8 
			63.8,82.9 63.8,72.9 63.8,72.1 62.9,72.1 57.2,72.1 57.2,31.1 69.5,31.1 69.5,36.8 69.5,37.6 70.3,37.6 80.4,37.6 81.3,37.6 
			81.3,36.8 81.3,21.3 81.3,20.5 		"/>
		<g>
			<polygon class="st2" points="58.9,76.9 61.4,74.3 61.4,81.3 58.9,78.9 			"/>
			<polygon class="st2" points="54.8,74.5 52.4,76.9 52.4,26.3 54.8,28.7 			"/>
			<polygon class="st2" points="26.4,25.4 23.8,22.9 77.6,22.9 74.4,25.4 			"/>
			<polygon class="st2" points="78.9,35.4 76.5,33 76.5,26.8 78.9,24.2 			"/>
		</g>
	</g>
	<path class="st0" d="M106.5,101.6c0-1.1,0.9-2.1,2.1-2.1s2.1,0.9,2.1,2.1s-0.9,2.1-2.1,2.1S106.5,102.8,106.5,101.6z M110.2,101.6
		c0-1-0.7-1.7-1.6-1.7s-1.6,0.7-1.6,1.7s0.7,1.7,1.6,1.7S110.2,102.6,110.2,101.6z M107.8,100.5h0.9c0.6,0,0.9,0.2,0.9,0.7
		c0,0.4-0.2,0.6-0.6,0.6l0.6,1h-0.5l-0.6-1h-0.3v1h-0.4V100.5z M108.2,101.5h0.4c0.3,0,0.5,0,0.5-0.4c0-0.3-0.2-0.3-0.5-0.3h-0.4
		V101.5z"/>
</g>
<g>
	<path class="st3" d="M138.7,30h-2.6V16.5h-4.6v-2.2h11.9v2.2h-4.6L138.7,30L138.7,30z"/>
	<path class="st3" d="M155.8,30h-8.9V14.2h8.9v2.2h-6.3v4.3h5.9v2.2h-5.9v4.9h6.3V30L155.8,30z"/>
	<path class="st3" d="M171.9,30h-3l-4-6.4l-4,6.4h-2.8l5.2-8.2l-4.9-7.6h2.9l3.6,6l3.6-6h2.8l-4.9,7.6L171.9,30L171.9,30z"/>
	<path class="st3" d="M184.9,30l-1.6-4.4h-6l-1.5,4.4H173l5.9-15.8h2.8l5.9,15.8H184.9L184.9,30z M182.6,23.4l-1.5-4.3
		c-0.1-0.3-0.3-0.7-0.5-1.4s-0.3-1.1-0.4-1.4c-0.2,0.9-0.5,1.9-0.9,2.9l-1.4,4.1H182.6L182.6,23.4z"/>
	<path class="st3" d="M199.9,25.7c0,1.4-0.5,2.5-1.5,3.3s-2.4,1.2-4.2,1.2s-3.2-0.3-4.4-0.8V27c0.7,0.3,1.5,0.6,2.3,0.8
		s1.6,0.3,2.3,0.3c1,0,1.8-0.2,2.3-0.6c0.5-0.4,0.7-0.9,0.7-1.6c0-0.6-0.2-1.1-0.7-1.5s-1.4-0.9-2.8-1.5c-1.4-0.6-2.5-1.2-3-2
		s-0.9-1.6-0.9-2.7c0-1.3,0.5-2.4,1.4-3.1s2.2-1.1,3.8-1.1s3,0.3,4.5,1l-0.8,2.1c-1.4-0.6-2.6-0.9-3.8-0.9c-0.8,0-1.5,0.2-1.9,0.5
		s-0.6,0.8-0.6,1.4c0,0.4,0.1,0.8,0.3,1.1c0.2,0.3,0.5,0.6,0.9,0.8s1.1,0.6,2.1,1c1.2,0.5,2,0.9,2.5,1.4c0.5,0.4,0.9,0.9,1.2,1.4
		C199.8,24.4,199.9,25,199.9,25.7L199.9,25.7z"/>
	<path class="st3" d="M220.7,30l-1.6-4.4h-6l-1.5,4.4h-2.7l5.9-15.8h2.8l5.9,15.8H220.7L220.7,30z M218.4,23.4l-1.5-4.3
		c-0.1-0.3-0.3-0.7-0.5-1.4s-0.3-1.1-0.4-1.4c-0.2,0.9-0.5,1.9-0.9,2.9l-1.4,4.1H218.4L218.4,23.4z"/>
	<path class="st3" d="M225.6,25.8c0-0.9,0.2-1.8,0.7-2.5s1.3-1.4,2.5-2.1c-0.7-0.8-1.1-1.5-1.4-2s-0.4-1.1-0.4-1.7
		c0-1.1,0.4-2,1.2-2.6s1.8-0.9,3.1-0.9s2.3,0.3,3,0.9s1.1,1.4,1.1,2.5c0,0.8-0.2,1.6-0.7,2.2s-1.3,1.3-2.4,2l3.7,3.6
		c0.6-0.8,1.1-1.9,1.5-3.4h2.6c-0.5,2-1.3,3.7-2.4,5l3.2,3.1h-3.3l-1.6-1.6c-0.7,0.6-1.5,1-2.4,1.3c-0.8,0.3-1.8,0.4-2.8,0.4
		c-1.6,0-3-0.4-3.9-1.2C226,28.3,225.6,27.2,225.6,25.8z M231,28.1c1.3,0,2.4-0.4,3.4-1.1l-4.1-4.1c-0.8,0.5-1.3,0.9-1.6,1.4
		c-0.3,0.4-0.4,0.9-0.4,1.5c0,0.7,0.2,1.3,0.8,1.7S230.2,28.1,231,28.1L231,28.1z M229.4,17.6c0,0.4,0.1,0.9,0.4,1.3s0.6,0.8,1,1.3
		c0.8-0.5,1.4-0.9,1.7-1.3s0.5-0.9,0.5-1.3c0-0.5-0.2-0.8-0.5-1.1s-0.7-0.4-1.2-0.4c-0.6,0-1,0.1-1.4,0.4
		C229.6,16.8,229.4,17.2,229.4,17.6L229.4,17.6z"/>
	<path class="st3" d="M250.9,30l-4.6-13.2h-0.1c0.1,2,0.2,3.8,0.2,5.5V30h-2.3V14.2h3.6l4.4,12.5h0.1l4.5-12.5h3.6V30h-2.5v-7.8
		c0-0.8,0-1.8,0.1-3.1s0.1-2,0.1-2.3h-0.1L253.2,30H250.9L250.9,30z"/>
	<path class="st3" d="M284.8,14.2v10.2c0,1.2-0.2,2.2-0.8,3.1c-0.5,0.9-1.2,1.6-2.2,2s-2.1,0.7-3.4,0.7c-2,0-3.5-0.5-4.6-1.6
		c-1.1-1-1.6-2.5-1.6-4.3V14.3h2.6v10c0,1.3,0.3,2.3,0.9,2.9c0.6,0.6,1.5,0.9,2.8,0.9c2.4,0,3.6-1.3,3.6-3.8v-10L284.8,14.2
		L284.8,14.2z"/>
	<path class="st3" d="M303,30h-3.2l-7.8-12.6H292l0,0.7c0.1,1.3,0.1,2.6,0.1,3.7V30h-2.3V14.3h3.1l7.7,12.5h0.1c0-0.2,0-0.8-0.1-1.8
		s-0.1-1.9-0.1-2.4v-8.3h2.4V30L303,30z"/>
	<path class="st3" d="M308.3,30V14.2h2.6V30H308.3z"/>
	<path class="st3" d="M325.1,14.2h2.7L322.3,30h-2.7l-5.5-15.8h2.6l3.3,9.8c0.2,0.5,0.4,1.1,0.5,1.8c0.2,0.7,0.3,1.3,0.4,1.6
		c0.1-0.6,0.2-1.2,0.4-1.9s0.4-1.2,0.5-1.6L325.1,14.2L325.1,14.2z"/>
	<path class="st3" d="M339.9,30H331V14.2h8.9v2.2h-6.3v4.3h5.9v2.2h-5.9v4.9h6.3V30L339.9,30z"/>
	<path class="st3" d="M347,23.7V30h-2.6V14.2h4.5c2,0,3.5,0.4,4.5,1.1c1,0.8,1.5,1.9,1.5,3.4c0,2-1,3.4-3.1,4.2l4.5,7h-2.9l-3.8-6.3
		L347,23.7L347,23.7z M347,21.6h1.8c1.2,0,2.1-0.2,2.6-0.7c0.5-0.4,0.8-1.1,0.8-2s-0.3-1.5-0.9-1.9s-1.5-0.6-2.6-0.6H347L347,21.6
		L347,21.6z"/>
	<path class="st3" d="M368.7,25.7c0,1.4-0.5,2.5-1.5,3.3s-2.4,1.2-4.2,1.2s-3.2-0.3-4.4-0.8V27c0.7,0.3,1.5,0.6,2.3,0.8
		s1.6,0.3,2.3,0.3c1,0,1.8-0.2,2.3-0.6s0.7-0.9,0.7-1.6c0-0.6-0.2-1.1-0.7-1.5s-1.4-0.9-2.8-1.5c-1.4-0.6-2.5-1.2-3-2
		c-0.6-0.8-0.9-1.6-0.9-2.7c0-1.3,0.5-2.4,1.4-3.1s2.2-1.1,3.8-1.1s3,0.3,4.5,1l-0.8,2.1c-1.4-0.6-2.7-0.9-3.8-0.9
		c-0.8,0-1.5,0.2-1.9,0.5s-0.7,0.8-0.7,1.4c0,0.4,0.1,0.8,0.3,1.1c0.2,0.3,0.5,0.6,0.8,0.8s1.1,0.6,2.1,1c1.2,0.5,2,0.9,2.5,1.4
		c0.5,0.4,0.9,0.9,1.2,1.4C368.6,24.4,368.7,25,368.7,25.7L368.7,25.7z"/>
	<path class="st3" d="M372.9,30V14.2h2.6V30H372.9z"/>
	<path class="st3" d="M386.2,30h-2.6V16.5H379v-2.2h11.8v2.2h-4.6L386.2,30L386.2,30z"/>
	<path class="st3" d="M398.8,21.4l3.7-7.2h2.8l-5.2,9.6V30h-2.6v-6l-5.2-9.7h2.8L398.8,21.4L398.8,21.4z"/>
</g>
<g>
	<path class="st3" d="M153.1,82h-17.6V50.4h17.6v3.3h-13.9v10.2h13.1v3.2h-13.1v11.6h13.9V82L153.1,82z"/>
	<path class="st3" d="M175.7,82V66.7c0-1.9-0.4-3.4-1.3-4.3s-2.2-1.4-4.1-1.4c-2.5,0-4.3,0.7-5.4,2s-1.7,3.5-1.7,6.6V82h-3.6V58.3
		h2.9l0.6,3.2h0.2c0.7-1.2,1.8-2.1,3.1-2.7c1.3-0.6,2.8-1,4.4-1c2.9,0,5,0.7,6.4,2.1s2.2,3.6,2.2,6.6V82L175.7,82L175.7,82z"/>
	<path class="st3" d="M194.3,79.4c0.6,0,1.2,0,1.8-0.1c0.6-0.1,1.1-0.2,1.4-0.3v2.7c-0.4,0.2-1,0.3-1.7,0.5s-1.4,0.2-2,0.2
		c-4.6,0-6.9-2.4-6.9-7.2V61.1h-3.4v-1.7l3.4-1.5l1.5-5.1h2.1v5.5h6.9v2.8h-6.9V75c0,1.4,0.3,2.5,1,3.3
		C192.2,79,193.1,79.4,194.3,79.4L194.3,79.4z"/>
	<path class="st3" d="M222.6,70.1c0,3.9-1,6.9-2.9,9s-4.6,3.2-8,3.2c-2.1,0-4-0.5-5.6-1.5s-2.9-2.4-3.8-4.3c-0.9-1.9-1.3-4-1.3-6.5
		c0-3.9,1-6.9,2.9-9c1.9-2.1,4.6-3.2,8-3.2s5.9,1.1,7.9,3.3S222.6,66.4,222.6,70.1L222.6,70.1z M204.6,70.1c0,3,0.6,5.3,1.8,6.9
		s3,2.4,5.3,2.4s4.1-0.8,5.3-2.4c1.2-1.6,1.8-3.9,1.8-6.9s-0.6-5.3-1.8-6.9c-1.2-1.6-3-2.3-5.4-2.3s-4.1,0.8-5.3,2.3
		C205.2,64.8,204.6,67.1,204.6,70.1L204.6,70.1z"/>
	<path class="st3" d="M259,82V66.6c0-1.9-0.4-3.3-1.2-4.2s-2.1-1.4-3.8-1.4c-2.2,0-3.9,0.6-4.9,1.9s-1.6,3.2-1.6,5.9V82H244V66.6
		c0-1.9-0.4-3.3-1.2-4.2s-2.1-1.4-3.8-1.4c-2.2,0-3.9,0.7-4.9,2c-1,1.3-1.6,3.6-1.6,6.6V82h-3.6V58.3h2.9l0.6,3.2h0.2
		c0.7-1.1,1.6-2.1,2.9-2.7c1.2-0.6,2.6-1,4.1-1c3.7,0,6.1,1.3,7.2,4h0.2c0.7-1.2,1.7-2.2,3.1-2.9c1.3-0.7,2.9-1.1,4.6-1.1
		c2.7,0,4.7,0.7,6,2.1c1.3,1.4,2,3.6,2,6.6V82L259,82L259,82z"/>
	<path class="st3" d="M290.4,70.1c0,3.9-1,6.9-2.9,9s-4.6,3.2-8,3.2c-2.1,0-4-0.5-5.6-1.5s-2.9-2.4-3.8-4.3c-0.9-1.9-1.3-4-1.3-6.5
		c0-3.9,1-6.9,2.9-9c1.9-2.1,4.6-3.2,8-3.2s5.9,1.1,7.9,3.3S290.4,66.4,290.4,70.1L290.4,70.1z M272.4,70.1c0,3,0.6,5.3,1.8,6.9
		s3,2.4,5.3,2.4s4.1-0.8,5.3-2.4c1.2-1.6,1.8-3.9,1.8-6.9s-0.6-5.3-1.8-6.9c-1.2-1.6-3-2.3-5.4-2.3s-4.1,0.8-5.3,2.3
		C273,64.8,272.4,67.1,272.4,70.1L272.4,70.1z"/>
	<path class="st3" d="M300.3,82h-3.6V48.4h3.6V82z"/>
	<path class="st3" d="M328.2,70.1c0,3.9-1,6.9-2.9,9s-4.6,3.2-8,3.2c-2.1,0-4-0.5-5.6-1.5s-2.9-2.4-3.8-4.3c-0.9-1.9-1.3-4-1.3-6.5
		c0-3.9,1-6.9,2.9-9c1.9-2.1,4.6-3.2,8-3.2s5.9,1.1,7.9,3.3S328.2,66.4,328.2,70.1L328.2,70.1z M310.2,70.1c0,3,0.6,5.3,1.8,6.9
		s3,2.4,5.3,2.4s4.1-0.8,5.3-2.4c1.2-1.6,1.8-3.9,1.8-6.9s-0.6-5.3-1.8-6.9c-1.2-1.6-3-2.3-5.4-2.3s-4.1,0.8-5.3,2.3
		C310.8,64.8,310.2,67.1,310.2,70.1L310.2,70.1z"/>
	<path class="st3" d="M353.9,58.3v2.3l-4.4,0.5c0.4,0.5,0.8,1.2,1.1,2s0.5,1.7,0.5,2.8c0,2.3-0.8,4.2-2.4,5.5s-3.8,2.1-6.5,2.1
		c-0.7,0-1.4-0.1-2-0.2c-1.5,0.8-2.3,1.8-2.3,3c0,0.6,0.3,1.1,0.8,1.4s1.5,0.5,2.7,0.5h4.2c2.6,0,4.5,0.5,5.9,1.6s2.1,2.6,2.1,4.7
		c0,2.6-1,4.6-3.1,6c-2.1,1.4-5.2,2.1-9.2,2.1c-3.1,0-5.5-0.6-7.1-1.7c-1.7-1.1-2.5-2.8-2.5-4.9c0-1.4,0.5-2.7,1.4-3.7
		c0.9-1,2.2-1.8,3.9-2.1c-0.6-0.3-1.1-0.7-1.5-1.3c-0.4-0.6-0.6-1.2-0.6-2c0-0.9,0.2-1.6,0.7-2.3c0.5-0.6,1.2-1.3,2.2-1.9
		c-1.2-0.5-2.2-1.4-3-2.6c-0.8-1.2-1.1-2.6-1.1-4.1c0-2.6,0.8-4.6,2.3-6c1.5-1.4,3.8-2.1,6.6-2.1c1.2,0,2.4,0.1,3.3,0.4L353.9,58.3
		L353.9,58.3z M335,85.9c0,1.3,0.5,2.2,1.6,2.9s2.6,1,4.6,1c3,0,5.2-0.5,6.7-1.4c1.4-0.9,2.2-2.1,2.2-3.7c0-1.3-0.4-2.2-1.2-2.7
		c-0.8-0.5-2.3-0.7-4.5-0.7h-4.3c-1.6,0-2.9,0.4-3.8,1.2C335.5,83.4,335,84.5,335,85.9L335,85.9z M337,65.9c0,1.6,0.5,2.9,1.4,3.8
		c0.9,0.9,2.2,1.3,3.9,1.3c3.5,0,5.2-1.7,5.2-5.1s-1.8-5.3-5.3-5.3c-1.7,0-3,0.4-3.9,1.4C337.4,62.8,337,64.1,337,65.9L337,65.9z"/>
	<path class="st3" d="M355,58.3h3.8l5.2,13.5c1.1,3.1,1.8,5.3,2.1,6.7h0.2c0.2-0.7,0.6-2,1.2-3.8c0.6-1.8,2.5-7.2,5.9-16.4h3.8
		L367,85.3c-1,2.7-2.2,4.5-3.5,5.7s-3,1.7-5,1.7c-1.1,0-2.2-0.1-3.2-0.4v-2.9c0.8,0.2,1.7,0.3,2.6,0.3c2.5,0,4.2-1.4,5.3-4.1
		l1.3-3.4L355,58.3L355,58.3z"/>
</g>
</svg>
