<?xml version="1.0" encoding="utf-8"?>
<!-- Generator: Adobe Illustrator 26.3.1, SVG Export Plug-In . SVG Version: 6.00 Build 0)  -->
<svg version="1.1" id="Layer_1" xmlns="http://www.w3.org/2000/svg" xmlns:xlink="http://www.w3.org/1999/xlink" x="0px" y="0px"
	 viewBox="0 0 415.8 99" style="enable-background:new 0 0 415.8 99;" xml:space="preserve">
<style type="text/css">
	.st0{fill:none;stroke:#FFFFFF;stroke-width:1.25;}
	.st1{fill:#FFFFFF;}
	.st2{fill:#B1B3B6;}
</style>
<line class="st0" x1="122.8" y1="0" x2="122.8" y2="97.4"/>
<g>
	<path class="st1" d="M68,85.8c0-1.7,1.4-3,3-3s3,1.4,3,3s-1.4,3-3,3S68,87.4,68,85.8 M73.3,85.8c0-1.4-1-2.4-2.3-2.4
		s-2.3,1-2.3,2.4s1,2.4,2.3,2.4S73.3,87.2,73.3,85.8 M69.9,84h1.3c0.8,0,1.3,0.3,1.3,1c0,0.6-0.3,0.9-0.9,0.9l0.9,1.5h-0.6L70.9,86
		h-0.4v1.5h-0.6V84z M70.5,85.5h0.6c0.4,0,0.7,0,0.7-0.5c0-0.4-0.4-0.5-0.7-0.5h-0.6L70.5,85.5L70.5,85.5z"/>
	<g>
		<polygon class="st1" points="96.8,34.9 87.1,34.9 86.5,34.9 86.3,35.4 79.2,50.1 72.2,35.4 71.9,34.9 71.4,34.9 62,34.9 
			61.1,34.9 61.1,35.8 61.1,40.8 61.1,41.7 62,41.7 63.6,41.7 63.6,62.6 61.9,62.6 61,62.6 61,63.5 61,68.5 61,69.4 61.9,69.4 
			72.4,69.4 73.3,69.4 73.3,68.5 73.3,63.5 73.3,62.6 72.4,62.6 70.6,62.6 70.6,47.8 78.4,64 79.2,65.6 80,64 88,47.7 88,62.6 
			86.3,62.6 85.4,62.6 85.4,63.5 85.4,68.5 85.4,69.4 86.3,69.4 96.8,69.4 97.7,69.4 97.7,68.5 97.7,63.5 97.7,62.6 96.8,62.6 
			95,62.6 95,41.7 96.8,41.7 97.7,41.7 97.7,40.8 97.7,35.8 97.7,34.9 		"/>
		<path class="st1" d="M35.7,62.6h-2.8l-9.1-21.1h1.8v-6.8H10.9v6.8h2L3.8,62.6H0v6.8h13.3v-6.8h-1.9l1.5-3.5h10.9l1.5,3.5h-2v6.8
			h13.3v-6.8L35.7,62.6L35.7,62.6z M20.9,52.3h-5.1l2.5-5.9L20.9,52.3L20.9,52.3z"/>
		<polygon class="st1" points="85.6,8.6 11.8,8.6 10.8,8.6 10.8,9.6 10.8,29.3 10.8,30.4 11.8,30.4 24.6,30.4 25.6,30.4 25.6,29.3 
			25.6,22 41.3,22 41.3,74 34,74 33,74 33,75 33,87.8 33,88.8 34,88.8 63.4,88.8 64.5,88.8 64.5,87.8 64.5,75 64.5,74 63.4,74 
			56.1,74 56.1,22 71.8,22 71.8,29.2 71.8,30.3 72.8,30.3 85.6,30.3 86.7,30.3 86.7,29.2 86.7,9.6 86.7,8.6 		"/>
		<g>
			<polygon class="st2" points="58.3,80.1 61.4,76.8 61.4,85.7 58.3,82.7 			"/>
			<polygon class="st2" points="53.1,77.1 50,80.2 50,15.9 53.1,19 			"/>
			<polygon class="st2" points="17,14.8 13.8,11.6 82.1,11.6 78,14.8 			"/>
			<polygon class="st2" points="83.7,27.4 80.6,24.4 80.6,16.5 83.7,13.3 			"/>
		</g>
	</g>
</g>
<g>
	<path class="st1" d="M160.3,27.2h-2.5V14.3h-4.4v-2.1h11.3v2.1h-4.4L160.3,27.2L160.3,27.2z"/>
	<path class="st1" d="M176.6,27.2h-8.5v-15h8.5v2.1h-6v4.1h5.7v2.1h-5.7v4.7h6V27.2L176.6,27.2z"/>
	<path class="st1" d="M191.9,27.2h-2.8l-3.8-6.1l-3.8,6.1h-2.6l5-7.8l-4.7-7.2h2.7l3.5,5.7l3.5-5.7h2.6l-4.7,7.3L191.9,27.2
		L191.9,27.2z"/>
	<path class="st1" d="M204.3,27.2l-1.5-4.2h-5.8l-1.5,4.2H193l5.6-15.1h2.7l5.6,15.1H204.3L204.3,27.2z M202.2,20.9l-1.4-4.1
		c-0.1-0.3-0.2-0.7-0.4-1.3c-0.2-0.6-0.3-1-0.4-1.3c-0.2,0.8-0.5,1.8-0.8,2.8l-1.4,3.9L202.2,20.9L202.2,20.9z"/>
	<path class="st1" d="M218.7,23.2c0,1.3-0.5,2.4-1.5,3.1c-1,0.8-2.3,1.1-4,1.1s-3.1-0.3-4.2-0.8v-2.3c0.7,0.3,1.4,0.6,2.2,0.8
		c0.8,0.2,1.5,0.3,2.1,0.3c1,0,1.7-0.2,2.1-0.6s0.7-0.9,0.7-1.5c0-0.6-0.2-1-0.6-1.4c-0.4-0.4-1.3-0.9-2.6-1.4
		c-1.4-0.6-2.3-1.2-2.9-1.9c-0.6-0.7-0.8-1.6-0.8-2.6c0-1.2,0.5-2.2,1.3-3s2.1-1.1,3.6-1.1s2.9,0.3,4.3,0.9l-0.8,2
		c-1.3-0.6-2.5-0.8-3.6-0.8c-0.8,0-1.4,0.2-1.8,0.5s-0.6,0.8-0.6,1.4c0,0.4,0.1,0.7,0.2,1s0.4,0.5,0.8,0.8c0.4,0.2,1,0.6,2,1
		c1.1,0.5,1.9,0.9,2.4,1.3c0.5,0.4,0.9,0.9,1.1,1.4S218.7,22.5,218.7,23.2L218.7,23.2z"/>
	<path class="st1" d="M238.5,27.2l-1.5-4.2h-5.8l-1.5,4.2h-2.6l5.6-15.1h2.7l5.6,15.1H238.5L238.5,27.2z M236.3,20.9l-1.4-4.1
		c-0.1-0.3-0.2-0.7-0.4-1.3s-0.3-1-0.4-1.3c-0.2,0.8-0.5,1.8-0.8,2.8l-1.4,3.9L236.3,20.9L236.3,20.9z"/>
	<path class="st1" d="M243.1,23.3c0-0.9,0.2-1.7,0.7-2.4c0.4-0.7,1.2-1.3,2.4-2c-0.6-0.8-1.1-1.4-1.3-1.9s-0.4-1.1-0.4-1.6
		c0-1,0.4-1.9,1.1-2.5c0.7-0.6,1.7-0.9,3-0.9s2.2,0.3,2.9,0.9c0.7,0.6,1,1.4,1,2.4c0,0.8-0.2,1.5-0.7,2.1s-1.2,1.3-2.3,1.9l3.6,3.4
		c0.5-0.7,1-1.8,1.4-3.2h2.5c-0.5,1.9-1.2,3.5-2.3,4.8l3.1,3h-3.1l-1.5-1.5c-0.7,0.6-1.4,1-2.2,1.3c-0.8,0.3-1.7,0.4-2.6,0.4
		c-1.6,0-2.8-0.4-3.7-1.1S243.2,24.5,243.1,23.3L243.1,23.3z M248.3,25.4c1.2,0,2.3-0.4,3.2-1.1l-3.9-3.9c-0.7,0.5-1.2,0.9-1.5,1.3
		s-0.4,0.9-0.4,1.4c0,0.7,0.2,1.2,0.7,1.6C246.9,25.1,247.5,25.4,248.3,25.4L248.3,25.4z M246.8,15.4c0,0.4,0.1,0.8,0.3,1.2
		s0.5,0.8,1,1.2c0.8-0.4,1.3-0.9,1.6-1.2c0.3-0.4,0.5-0.8,0.5-1.3c0-0.4-0.1-0.8-0.5-1.1c-0.3-0.3-0.7-0.4-1.2-0.4
		c-0.5,0-1,0.1-1.3,0.4S246.7,15,246.8,15.4L246.8,15.4z"/>
	<path class="st1" d="M267.3,27.2l-4.4-12.6h-0.1c0.1,1.9,0.2,3.6,0.2,5.2v7.3h-2.2v-15h3.5l4.2,12h0.1l4.3-12h3.5v15h-2.4v-7.4
		c0-0.8,0-1.7,0.1-2.9s0.1-1.9,0.1-2.2h-0.1l-4.5,12.5L267.3,27.2L267.3,27.2z"/>
	<path class="st1" d="M299.5,12.2v9.7c0,1.1-0.2,2.1-0.7,2.9c-0.5,0.8-1.2,1.5-2.1,1.9c-0.9,0.4-2,0.7-3.2,0.7
		c-1.9,0-3.3-0.5-4.4-1.5c-1-1-1.5-2.3-1.5-4.1v-9.7h2.5v9.5c0,1.2,0.3,2.2,0.9,2.8c0.6,0.6,1.5,0.9,2.6,0.9c2.3,0,3.5-1.2,3.5-3.6
		v-9.5L299.5,12.2L299.5,12.2z"/>
	<path class="st1" d="M317,27.2h-3l-7.4-12h-0.1l0,0.7c0.1,1.3,0.1,2.4,0.1,3.5v7.8h-2.2v-15h3l7.4,11.9h0.1c0-0.2,0-0.7-0.1-1.7
		s-0.1-1.8-0.1-2.3v-7.9h2.2V27.2z"/>
	<path class="st1" d="M322,27.2v-15h2.5v15H322z"/>
	<path class="st1" d="M338,12.2h2.5l-5.3,15h-2.6l-5.2-15h2.5l3.1,9.3c0.2,0.4,0.3,1,0.5,1.7c0.2,0.7,0.3,1.2,0.4,1.6
		c0.1-0.5,0.2-1.1,0.4-1.8c0.2-0.7,0.3-1.2,0.5-1.5L338,12.2L338,12.2z"/>
	<path class="st1" d="M352.1,27.2h-8.5v-15h8.5v2.1h-6v4.1h5.7v2.1h-5.7v4.7h6V27.2L352.1,27.2z"/>
	<path class="st1" d="M358.9,21.2v6h-2.5v-15h4.2c1.9,0,3.4,0.4,4.3,1.1c0.9,0.7,1.4,1.8,1.4,3.3c0,1.9-1,3.2-2.9,4l4.2,6.6h-2.8
		l-3.6-6L358.9,21.2L358.9,21.2z M358.9,19.2h1.7c1.1,0,2-0.2,2.5-0.6s0.8-1.1,0.8-1.9s-0.3-1.5-0.8-1.8c-0.5-0.4-1.4-0.6-2.5-0.6
		h-1.6L358.9,19.2L358.9,19.2z"/>
	<path class="st1" d="M379.6,23.2c0,1.3-0.5,2.4-1.5,3.1c-1,0.8-2.3,1.1-4,1.1s-3.1-0.3-4.2-0.8v-2.3c0.7,0.3,1.4,0.6,2.2,0.8
		c0.8,0.2,1.5,0.3,2.2,0.3c1,0,1.7-0.2,2.2-0.6s0.7-0.9,0.7-1.5c0-0.6-0.2-1-0.6-1.4s-1.3-0.9-2.6-1.4c-1.4-0.6-2.3-1.2-2.9-1.9
		c-0.6-0.7-0.8-1.6-0.8-2.6c0-1.2,0.5-2.2,1.3-3s2.1-1.1,3.6-1.1s2.9,0.3,4.3,0.9l-0.8,2c-1.3-0.6-2.5-0.8-3.6-0.8
		c-0.8,0-1.4,0.2-1.8,0.5s-0.6,0.8-0.6,1.4c0,0.4,0.1,0.7,0.2,1s0.4,0.5,0.8,0.8c0.4,0.2,1,0.6,2,1c1.1,0.5,1.9,0.9,2.4,1.3
		c0.5,0.4,0.9,0.9,1.1,1.4S379.6,22.5,379.6,23.2L379.6,23.2z"/>
	<path class="st1" d="M383.5,27.2v-15h2.5v15H383.5z"/>
	<path class="st1" d="M396.2,27.2h-2.5V14.3h-4.4v-2.1h11.3v2.1h-4.4V27.2z"/>
	<path class="st1" d="M408.2,19.1l3.6-6.9h2.7l-5,9.2v5.8H407v-5.8l-5-9.3h2.7L408.2,19.1L408.2,19.1z"/>
</g>
<g>
	<path class="st1" d="M174,76.8h-16.8V46.7H174v3.1h-13.3v9.7h12.5v3.1h-12.5v11.1H174V76.8L174,76.8z"/>
	<path class="st1" d="M195.6,76.8V62.2c0-1.8-0.4-3.2-1.2-4.1c-0.8-0.9-2.1-1.4-3.9-1.4c-2.4,0-4.1,0.6-5.2,1.9
		c-1.1,1.3-1.6,3.4-1.6,6.3v11.8h-3.4V54.2h2.8l0.5,3.1h0.2c0.7-1.1,1.7-2,2.9-2.6s2.7-0.9,4.2-0.9c2.7,0,4.8,0.6,6.1,2
		c1.4,1.3,2.1,3.4,2.1,6.3v14.7L195.6,76.8L195.6,76.8z"/>
	<path class="st1" d="M213.3,74.4c0.6,0,1.2,0,1.8-0.1s1-0.2,1.3-0.3v2.6c-0.4,0.2-0.9,0.3-1.6,0.4c-0.7,0.1-1.4,0.2-1.9,0.2
		c-4.4,0-6.5-2.3-6.5-6.9V56.9H203v-1.6l3.2-1.4l1.4-4.8h2v5.2h6.5v2.6h-6.5v13.3c0,1.4,0.3,2.4,1,3.1
		C211.3,74,212.2,74.3,213.3,74.4L213.3,74.4z"/>
	<path class="st1" d="M240.3,65.5c0,3.7-0.9,6.5-2.8,8.6s-4.4,3.1-7.7,3.1c-2,0-3.8-0.5-5.4-1.4c-1.6-1-2.8-2.3-3.6-4.1
		c-0.9-1.8-1.3-3.8-1.3-6.2c0-3.7,0.9-6.5,2.8-8.6c1.8-2.1,4.4-3.1,7.6-3.1s5.7,1.1,7.5,3.1C239.4,59.1,240.3,61.9,240.3,65.5
		L240.3,65.5z M223.1,65.5c0,2.9,0.6,5.1,1.7,6.6c1.1,1.5,2.8,2.3,5.1,2.3s3.9-0.8,5.1-2.2s1.7-3.7,1.7-6.6s-0.6-5-1.7-6.5
		s-2.9-2.2-5.1-2.2s-3.9,0.7-5.1,2.2C223.7,60.4,223.1,62.6,223.1,65.5z"/>
	<path class="st1" d="M275,76.8V62.1c0-1.8-0.4-3.1-1.1-4s-2-1.4-3.6-1.4c-2.1,0-3.7,0.6-4.7,1.8c-1,1.2-1.5,3.1-1.5,5.6v12.6h-3.4
		V62.1c0-1.8-0.4-3.1-1.1-4s-2-1.4-3.6-1.4c-2.1,0-3.7,0.6-4.7,1.9c-1,1.3-1.5,3.4-1.5,6.3v11.8h-3.4V54.2h2.8l0.5,3.1h0.2
		c0.6-1.1,1.5-1.9,2.7-2.6c1.2-0.6,2.5-0.9,3.9-0.9c3.5,0,5.8,1.3,6.9,3.8h0.2c0.7-1.2,1.6-2.1,2.9-2.8s2.7-1,4.4-1
		c2.5,0,4.5,0.6,5.7,2c1.3,1.3,1.9,3.4,1.9,6.3v14.7L275,76.8L275,76.8z"/>
	<path class="st1" d="M304.9,65.5c0,3.7-0.9,6.5-2.8,8.6s-4.4,3.1-7.7,3.1c-2,0-3.8-0.5-5.4-1.4c-1.6-1-2.8-2.3-3.6-4.1
		c-0.9-1.8-1.3-3.8-1.3-6.2c0-3.7,0.9-6.5,2.8-8.6c1.8-2.1,4.4-3.1,7.6-3.1s5.7,1.1,7.5,3.1C304,59.1,304.9,61.9,304.9,65.5
		L304.9,65.5z M287.7,65.5c0,2.9,0.6,5.1,1.7,6.6c1.1,1.5,2.8,2.3,5.1,2.3s3.9-0.8,5.1-2.2s1.7-3.7,1.7-6.6s-0.6-5-1.7-6.5
		s-2.9-2.2-5.1-2.2s-3.9,0.7-5.1,2.2C288.3,60.4,287.7,62.6,287.7,65.5z"/>
	<path class="st1" d="M314.3,76.8h-3.4v-32h3.4V76.8z"/>
	<path class="st1" d="M341,65.5c0,3.7-0.9,6.5-2.8,8.6s-4.4,3.1-7.7,3.1c-2,0-3.8-0.5-5.4-1.4c-1.6-1-2.8-2.3-3.6-4.1
		c-0.9-1.8-1.3-3.8-1.3-6.2c0-3.7,0.9-6.5,2.8-8.6c1.8-2.1,4.4-3.1,7.6-3.1s5.7,1.1,7.5,3.1C340.1,59.1,341,61.9,341,65.5L341,65.5z
		 M323.8,65.5c0,2.9,0.6,5.1,1.7,6.6c1.1,1.5,2.8,2.3,5.1,2.3s3.9-0.8,5.1-2.2s1.7-3.7,1.7-6.6s-0.6-5-1.7-6.5s-2.9-2.2-5.1-2.2
		s-3.9,0.7-5.1,2.2C324.4,60.4,323.8,62.6,323.8,65.5z"/>
	<path class="st1" d="M365.4,54.2v2.2l-4.2,0.5c0.4,0.5,0.7,1.1,1,1.9s0.5,1.6,0.5,2.6c0,2.2-0.8,4-2.3,5.3c-1.5,1.3-3.6,2-6.2,2
		c-0.7,0-1.3,0-1.9-0.2c-1.5,0.8-2.2,1.7-2.2,2.9c0,0.6,0.2,1.1,0.8,1.4c0.5,0.3,1.4,0.4,2.6,0.4h4c2.4,0,4.3,0.5,5.6,1.5
		c1.3,1,2,2.5,2,4.5c0,2.5-1,4.4-3,5.7s-4.9,2-8.8,2c-3,0-5.2-0.5-6.8-1.6s-2.4-2.6-2.4-4.6c0-1.4,0.4-2.6,1.3-3.6s2.1-1.7,3.7-2
		c-0.6-0.3-1.1-0.7-1.5-1.2s-0.6-1.2-0.6-1.9c0-0.8,0.2-1.5,0.7-2.2s1.1-1.2,2.1-1.8c-1.2-0.5-2.1-1.3-2.9-2.4
		c-0.7-1.1-1.1-2.5-1.1-3.9c0-2.5,0.7-4.4,2.2-5.7c1.5-1.3,3.6-2,6.3-2c1.2,0,2.2,0.1,3.2,0.4L365.4,54.2L365.4,54.2z M347.5,80.6
		c0,1.2,0.5,2.1,1.5,2.8c1,0.6,2.5,1,4.4,1c2.9,0,5-0.4,6.4-1.3c1.4-0.9,2.1-2,2.1-3.5c0-1.2-0.4-2.1-1.1-2.5s-2.2-0.7-4.3-0.7h-4.1
		c-1.5,0-2.8,0.4-3.6,1.1S347.5,79.2,347.5,80.6z M349.3,61.4c0,1.6,0.5,2.8,1.3,3.6c0.9,0.8,2.1,1.2,3.7,1.2c3.3,0,5-1.6,5-4.9
		s-1.7-5.1-5.1-5.1c-1.6,0-2.8,0.4-3.7,1.3C349.7,58.5,349.3,59.8,349.3,61.4L349.3,61.4z"/>
	<path class="st1" d="M366.5,54.2h3.7l4.9,12.9c1.1,2.9,1.8,5,2,6.4h0.2c0.2-0.7,0.5-1.9,1.1-3.6c0.6-1.7,2.4-6.9,5.6-15.6h3.7
		l-9.7,25.7c-1,2.5-2.1,4.3-3.4,5.4c-1.3,1.1-2.8,1.6-4.7,1.6c-1,0-2.1-0.1-3.1-0.4v-2.7c0.8,0.2,1.6,0.2,2.5,0.2c2.3,0,4-1.3,5-4
		l1.2-3.2L366.5,54.2L366.5,54.2z"/>
</g>
</svg>
