<svg id="PetDx_-_Color" data-name="PetDx - Color" xmlns="http://www.w3.org/2000/svg" viewBox="0 0 1167.57 391.87"><defs><style>.cls-1{fill:#758895;}.cls-2{fill:#405364;}.cls-3{fill:#f91090;}</style></defs><g id="Pet"><path id="P_-_looped" data-name="P - looped" class="cls-1" d="M102.32,245.7c30.59,0,54-8,69.65-26,20.77-23.89,38.31-86.26,2.37-125a82.32,82.32,0,0,0-24.3-18c-13.49-6.56-39.45-12-67.81-12-25,0-58.86,4.17-82.23,12v258H41.32v-95A341.56,341.56,0,0,0,102.32,245.7Zm-61-32V98.7c4.35-1.23,20-4,40.88-4s37.92,2.35,50.57,13.66C167,139,155.45,219.7,87,219.7,61.2,219.7,45.92,215.2,41.32,213.7Z"/><path id="e_-_square" data-name="e - square" class="cls-1" d="M307.51,126.7c-32.26,0-56.69,8.26-72.62,24.89S210.8,193.34,210.8,226.1v6.61c0,34.88,9.76,60.22,28.33,76.13C267,332.7,287.65,334.7,326.69,334.7c28.06,0,65.07-4.54,80.49-8l-3.8-26c-26,3.93-49.45,4-69.73,4-26.68,0-46.33-3.19-58.4-12.21-17.4-13-20-35.11-21-52.79H406.1V227c0-34.16-8.38-59.71-24.93-75.95S339.82,126.7,307.51,126.7Zm-53.82,87c.8-11.42,2.07-30.71,16-45.66,9.21-9.87,22.89-15.34,40.66-15.34,53.33,0,54.08,43.46,54.55,61Z"/><path id="t" class="cls-1" d="M453.26,316.27c10,11,24.74,18.43,47.34,18.43,28,0,45.84-4.65,58.59-8l-3.53-26c-9.9,1.95-31.46,4-50.22,4-10,0-17.69-2.43-22.93-10.07-4.86-7.07-7.32-16.78-7.32-28.86V152.7h59.32v-26H475.19v-50l-55.41,76H438V268.63C438,289.17,443.13,305.2,453.26,316.27Z"/></g><g id="Dx"><path id="D" class="cls-2" d="M818.67,152.7c-6-23-17.4-43.6-33.14-58C752.4,64.38,703.35,65.12,695.37,65c-.16,0-13.3-.34-27.63-.34-7.23,0-14.77.09-21.08.35-14.48.6-40.44,1.82-57.8,3.65v258c18.14,4,44.14,8,106.58,8,39.84,0,77.56-11,97.9-30,18.45-17.23,26.19-36.44,31-65C828.89,213.14,826.54,183.06,818.67,152.7Zm-66.82,101c-11.23,16-32.85,26-53.56,28.41-15.68,1.8-36.94.4-46.29.1V115.89c8.39-.39,33.07-1.34,46.29.12,14.15,1.58,33.8,8.24,46.5,22.18C756.23,150.53,762.67,169.63,764,195,764.72,213.21,764,236.36,751.85,253.66Z"/><path class="cls-2" d="M976.83,231.63h0c0,.61.07,1.23.06,1.86,0,14.86-12.62,26.51-29,26.51s-29-11.65-29-26.51c0-.62,0-1.24.06-1.84h0l-12.32-14.93L762.09,391.87h82.62L947.64,266.65l.13-.15.12.15,55.94,68.05h82.62l-97.32-118Z"/></g><path id="Checkmark" class="cls-3" d="M947.87,173.25c4.91,26.24,27.63,39,29,58.38L1167.57,0H1085L947.88,166.7,915,126.7H832.34l86.59,105C920.22,212.26,942.45,199.47,947.87,173.25Z"/></svg>